HIERARCHY
ROOT Hips
{
	OFFSET 0.00000 0.00000 0.00000
	CHANNELS 6 Xposition Yposition Zposition Yrotation Zrotation Xrotation 
	JOINT Lumbar
	{
		OFFSET 0 0 0
		CHANNELS 3 Zrotation Xrotation Yrotation
		JOINT Neck
		{
			OFFSET 0.00 0.2701 0.00
			CHANNELS 3 Zrotation Xrotation Yrotation
			End Site
			{
				OFFSET 0.00 0.1379 0.00
			}
		}
		JOINT RightShoulder
		{
			OFFSET 0.0119 0.2289 0.1181
			CHANNELS 3 Zrotation Xrotation Yrotation
			JOINT RightElbow
			{
				OFFSET 0.00 -0.1475 0.00
				CHANNELS 2 Zrotation Yrotation
				JOINT RightWrist
				{
					OFFSET 0.00 -0.1605 0.00
					CHANNELS 2 Zrotation Xrotation
					End Site
					{
						OFFSET 0.0040 -0.1068 0.0006
					}
				}
			}
		}
		JOINT LeftShoulder
		{
			OFFSET 0.0119 0.2289 -0.1181
			CHANNELS 3 Zrotation Xrotation Yrotation
			JOINT LeftElbow
			{
				OFFSET 0.00 -0.1475 0.00
				CHANNELS 2 Zrotation Yrotation
				JOINT LeftWrist
				{
					OFFSET 0.00 -0.1605 0.00
					CHANNELS 2 Zrotation Xrotation
					End Site
					{
						OFFSET 0.0040 -0.1068 -0.0006
					}
				}
			}
		}
	}
	JOINT RightHip
	{
		OFFSET 0.0316 -0.0424 0.0458
		CHANNELS 3 Zrotation Xrotation Yrotation
		JOINT RightKnee
		{
			OFFSET 0.00 -0.2438 0.00
			CHANNELS 1 Zrotation
			JOINT RightAnkle
			{
				OFFSET 0.00 -0.2449 0.00
				CHANNELS 3 Zrotation Xrotation Yrotation
				End Site
				{
					OFFSET 0.1237 -0.0542 0.0051
				}
			}
		}
	}
	JOINT LeftHip
	{
		OFFSET 0.0316 -0.0424 -0.0458
		CHANNELS 3 Zrotation Xrotation Yrotation
		JOINT LeftKnee
		{
			OFFSET 0.00 -0.2438 0.00
			CHANNELS 1 Zrotation
			JOINT LeftAnkle
			{
				OFFSET 0.00 -0.2449 0.00
				CHANNELS 3 Zrotation Xrotation Yrotation
				End Site
				{
					OFFSET 0.1237 -0.0542 -0.0051
				}
			}
		}
	}
}
MOTION
Frames: 33
Frame Time: 0.02
-0.07059 -0.03296 0.65279 4.61462 -18.02334 -5.08318 37.44984 0.23646 -1.93798 -13.70129 -0.65317 -0.83079 8.6532 -20.88335 34.80238 101.77657 87.59617 5.45372 -1.10494 8.18967 22.72564 -41.25317 104.7151 -82.97568 1.18411 2.1874 42.26303 -0.73055 -8.04717 -36.56409 -8.8254 -5.10357 -3.48737 36.61871 12.88702 0.60364 -26.13478 -9.41249 4.54187 3.17505
-0.07004 -0.03269 0.65136 4.75775 -17.86849 -5.31422 37.41091 0.30619 -2.2828 -13.79138 -0.68887 -0.83079 7.97356 -20.34909 34.31608 102.19165 87.00944 4.20967 -0.58145 8.03063 21.71125 -40.21402 104.87671 -82.04847 -0.02819 2.02095 42.58219 -0.60453 -8.07791 -37.11459 -8.74996 -5.03202 -3.44143 36.52758 12.93187 0.66811 -26.3712 -9.36576 4.52706 3.16613
-0.0693 -0.03237 0.65013 4.88734 -17.73511 -5.55323 37.41224 0.39998 -2.67126 -13.9658 -0.71867 -0.83079 7.14516 -19.93589 34.00278 102.65408 88.46357 3.92893 0.30797 7.47785 20.96698 -39.11967 104.87719 -81.72534 -0.97947 1.67721 42.94398 -0.44104 -8.11462 -37.59975 -8.64345 -4.93133 -3.37712 36.44295 13.00105 0.69968 -26.59481 -9.33052 4.51563 3.16116
-0.06864 -0.03207 0.64883 5.02733 -17.59061 -5.78471 37.38855 0.48203 -3.04463 -14.09252 -0.75303 -0.83079 6.39065 -19.45069 33.60905 103.08247 88.85283 3.18191 0.97292 7.11954 20.09846 -38.08699 104.93727 -81.12585 -2.04984 1.44734 43.28236 -0.29989 -8.1531 -38.09257 -8.55283 -4.84331 -3.32096 36.35118 13.0589 0.75169 -26.82151 -9.2892 4.50196 3.15376
-0.06799 -0.03175 0.64747 5.14417 -17.44978 -6.0322 37.393 0.56973 -3.39936 -14.26296 -0.77961 -0.83079 5.58996 -19.02958 33.18776 103.55827 89.69969 2.49714 1.86545 6.65316 19.24286 -36.86384 105.05424 -80.51214 -3.1376 1.08356 43.63565 -0.13632 -8.18122 -38.68009 -8.45314 -4.75617 -3.26465 36.27152 13.12013 0.78638 -27.05846 -9.25176 4.4912 3.14899
-0.06727 -0.03148 0.64628 5.30819 -17.30765 -6.24799 37.3494 0.65063 -3.80211 -14.36147 -0.82083 -0.83079 4.86161 -18.5086 32.87549 103.94655 90.13025 1.93188 2.38202 6.33629 18.42171 -36.03597 105.01516 -80.08142 -4.11793 0.95067 43.96967 -0.00933 -8.22365 -39.05314 -8.36616 -4.66169 -3.20515 36.17043 13.17903 0.84716 -27.27091 -9.20894 4.47515 3.13969
-0.06639 -0.03138 0.64549 5.60396 -17.15136 -6.37965 37.15216 0.70555 -4.33488 -14.23159 -0.90533 -0.83079 4.32146 -17.6603 32.85989 104.10681 88.85145 1.48875 1.71812 6.50904 17.63396 -36.34204 104.57694 -79.99095 -4.8871 1.54087 44.22956 -0.00841 -8.37352 -38.86271 -8.31438 -4.54358 -3.13517 36.00746 13.22831 0.98768 -27.42609 -9.1476 4.44442 3.11696
-0.06544 -0.03135 0.64486 5.94884 -16.9944 -6.47823 36.90714 0.75278 -4.91294 -14.02708 -1.00453 -0.83079 3.87064 -16.71364 32.94698 104.1733 87.11249 1.13853 0.67478 6.85538 16.87069 -37.04895 103.98742 -80.07016 -5.5506 2.36175 44.47068 -0.04344 -8.52619 -38.45624 -8.27775 -4.42087 -3.06365 35.8238 13.27372 1.15518 -27.55586 -9.08055 4.40809 3.0895
-0.06452 -0.03128 0.64417 6.27307 -16.84121 -6.58864 36.69117 0.80397 -5.46475 -13.86241 -1.09605 -0.83079 3.41219 -15.82528 32.96708 104.26792 85.63887 0.733 -0.15815 7.14075 16.09131 -37.55759 103.47381 -80.08555 -6.24589 3.04836 44.72744 -0.05101 -8.62935 -38.14027 -8.23953 -4.30759 -2.99714 35.651 13.31861 1.30928 -27.69294 -9.01667 4.3739 3.06422
-0.06361 -0.03122 0.64344 6.58931 -16.67337 -6.71302 36.44566 0.85379 -6.04167 -13.67705 -1.19148 -0.83079 2.80797 -14.87758 33.07623 104.42716 83.9916 0.40502 -1.13818 7.33557 15.33894 -38.12734 102.92955 -80.06443 -7.00112 3.85115 44.95573 -0.10167 -8.92866 -37.85448 -8.17884 -4.16344 -2.91246 35.47174 13.37346 1.46571 -27.84791 -8.95083 4.3417 3.03909
-0.06266 -0.03116 0.64283 6.93452 -16.53651 -6.80013 36.24978 0.90466 -6.57693 -13.51432 -1.28246 -0.83079 2.53198 -14.03617 33.02477 104.42651 82.57734 -0.06194 -1.90751 7.76602 14.53709 -38.67118 102.40879 -80.15324 -7.6095 4.47148 45.23821 -0.07481 -8.8297 -37.45533 -8.16774 -4.08142 -2.86466 35.30154 13.40703 1.62592 -27.95917 -8.8875 4.30377 3.0123
-0.06165 -0.03108 0.64253 7.34452 -16.47791 -6.79413 36.20281 0.95692 -6.9818 -13.44606 -1.35671 -0.83079 3.12703 -13.44836 32.48181 104.02761 81.85475 -1.04958 -1.99639 8.80254 13.55364 -39.00094 102.04616 -80.48914 -7.8389 4.51016 45.67536 0.2026 -7.54571 -36.7967 -8.30079 -4.18517 -2.92669 35.15672 13.37613 1.77306 -27.96085 -8.83304 4.25339 2.98362
-0.06059 -0.03099 0.64235 7.78298 -16.45185 -6.75134 36.20731 1.01086 -7.34373 -13.40036 -1.42628 -0.83079 4.05041 -12.98327 31.77625 103.46675 81.38344 -2.16521 -1.86331 10.07158 12.52632 -39.2989 101.70252 -80.92876 -7.92399 4.36145 46.1671 0.5542 -5.8758 -36.03185 -8.48147 -4.34946 -3.02465 35.02262 13.32487 1.92556 -27.91853 -8.7812 4.19712 2.95316
-0.05955 -0.0309 0.64214 8.21012 -16.4156 -6.72437 36.1878 1.06626 -7.72792 -13.3346 -1.49845 -0.83079 4.83597 -12.50206 31.16057 102.96684 80.83084 -3.15008 -1.83709 11.23911 11.54213 -39.64171 101.31436 -81.3288 -8.0776 4.31428 46.63374 0.85312 -4.43903 -35.31521 -8.63316 -4.47743 -3.10116 34.88667 13.28742 2.08783 -27.89324 -8.72766 4.14213 2.92242
-0.05855 -0.03081 0.64186 8.63073 -16.35971 -6.70039 36.16882 1.11253 -8.10224 -13.3068 -1.56866 -0.83079 5.58567 -11.84593 30.48493 102.5182 80.12942 -4.43121 -1.79742 12.39953 10.45746 -39.87252 101.07312 -81.70678 -8.22028 4.20867 47.10225 1.22965 -2.76177 -34.59033 -8.8158 -4.64181 -3.19889 34.73719 13.23141 2.20279 -27.87969 -8.67584 4.09257 2.89592
-0.05743 -0.03071 0.64174 9.07284 -16.35271 -6.66146 36.16212 1.17768 -8.48616 -13.20738 -1.64224 -0.83079 6.47534 -11.58975 29.88937 101.92417 79.79725 -5.13503 -1.72962 13.62192 9.57584 -40.32082 100.53141 -82.14861 -8.34623 4.17382 47.5785 1.46413 -1.48967 -33.86137 -8.94578 -4.74555 -3.26142 34.61879 13.20827 2.41311 -27.83139 -8.6214 4.03069 2.86047
-0.056 -0.03059 0.64198 9.55232 -16.4707 -6.59386 36.17232 1.30028 -8.90844 -12.89543 -1.72121 -0.83079 7.76472 -12.36654 29.59639 100.98407 80.47611 -4.1437 -1.62425 15.00664 9.22705 -41.40212 99.16284 -82.77912 -8.5181 4.40827 48.07585 1.27528 -1.46592 -33.13908 -8.91278 -4.66059 -3.2142 34.58293 13.28936 2.91974 -27.69935 -8.55697 3.9335 2.79885
-0.05442 -0.03046 0.64239 10.05513 -16.63717 -6.51201 36.19412 1.44092 -9.34159 -12.51291 -1.80471 -0.83079 9.16201 -13.55145 29.38197 99.90349 81.51046 -2.57903 -1.49886 16.43466 9.09158 -42.69702 97.48981 -83.46329 -8.66762 4.71353 48.57645 0.9435 -1.85683 -32.41941 -8.82615 -4.51382 -3.13107 34.57814 13.4027 3.51507 -27.53356 -8.49032 3.82468 2.72869
-0.05288 -0.03033 0.64275 10.55675 -16.78277 -6.43446 36.21378 1.56939 -9.76836 -12.1689 -1.88923 -0.83079 10.45286 -14.57503 29.10286 98.87388 82.34905 -1.32509 -1.39028 17.81203 8.88307 -43.87565 95.95303 -84.09602 -8.79124 4.96741 49.06751 0.68583 -2.03457 -31.70432 -8.76793 -4.3995 -3.06681 34.55969 13.49569 4.04786 -27.3826 -8.42602 3.72294 2.66366
-0.05147 -0.03021 0.64301 11.01924 -16.92451 -6.36466 36.22217 1.7141 -10.19881 -11.79766 -1.96011 -0.83079 12.01289 -15.49414 28.93776 97.88171 83.33915 0.13002 -1.24229 19.33342 8.57044 -45.13351 94.42897 -84.84278 -9.06378 5.29794 49.59586 0.39208 -2.30245 -30.95909 -8.69445 -4.26854 -2.99286 34.53984 13.61183 4.67696 -27.23284 -8.35584 3.61323 2.59316
-0.04974 -0.03008 0.64352 11.56888 -17.0855 -6.276 36.25592 1.82996 -10.62588 -11.46708 -2.06113 -0.83079 13.01438 -16.73469 28.55945 96.79438 84.09661 1.3118 -1.17366 20.55576 8.52805 -46.27864 92.80185 -85.36832 -9.02045 5.48558 50.04491 0.13854 -2.48709 -30.28109 -8.63927 -4.15717 -2.93033 34.52993 13.68787 5.12363 -27.07236 -8.29775 3.51764 2.53221
-0.04723 -0.02996 0.64465 12.34878 -17.28659 -6.13738 36.35843 1.85585 -11.03164 -11.25823 -2.23892 -0.83079 12.60417 -18.68648 27.54019 95.36014 84.10883 1.53153 -1.33662 20.99158 9.16144 -47.04644 90.99919 -85.23442 -8.13094 5.28292 50.28797 0.03136 -2.33442 -29.76792 -8.64846 -4.11134 -2.90575 34.54163 13.64411 5.06948 -26.89732 -8.27039 3.46226 2.49848
-0.04439 -0.02983 0.64605 13.21601 -17.50544 -5.9808 36.48546 1.85333 -11.4358 -11.09445 -2.44775 -0.83079 11.59365 -20.95872 26.30815 93.85878 83.87605 1.46954 -1.57987 21.11277 10.06276 -47.69395 89.09691 -84.88736 -6.9217 4.93093 50.44817 -0.03067 -2.08729 -29.32634 -8.67752 -4.08769 -2.89411 34.56183 13.5595 4.82444 -26.71148 -8.25598 3.4218 2.4749
-0.04168 -0.0297 0.64735 14.04654 -17.71675 -5.83338 36.60009 1.86743 -11.84671 -10.9146 -2.64602 -0.83079 10.7578 -23.13713 25.19914 92.46559 83.76504 1.58111 -1.78242 21.34625 10.85399 -48.40844 87.21735 -84.65392 -5.84543 4.63404 50.63708 -0.11424 -1.88859 -28.86615 -8.69682 -4.05601 -2.87794 34.57698 13.49404 4.65014 -26.52654 -8.23762 3.37565 2.44753
-0.03908 -0.02961 0.64855 14.86649 -17.9275 -5.68084 36.72073 1.86582 -12.2316 -10.71222 -2.83 -0.83079 10.35466 -25.12195 23.99179 90.73595 83.62394 1.5204 -2.00168 21.71787 11.60461 -49.08727 85.42193 -84.33017 -4.81828 4.39332 50.86425 -0.19921 -1.6786 -28.34844 -8.71749 -4.01371 -2.85497 34.59842 13.42594 4.54495 -26.35791 -8.21063 3.32461 2.41645
-0.03615 -0.02943 0.65003 15.72741 -18.14305 -5.53538 36.83419 1.89079 -12.67135 -10.57021 -3.05043 -0.83079 8.88823 -27.56724 22.92494 89.69745 83.48093 1.74413 -2.20577 21.71783 12.49909 -49.79785 83.43215 -84.17021 -3.61579 3.99933 50.99155 -0.26771 -1.4672 -27.96597 -8.74054 -3.99942 -2.84953 34.60815 13.35483 4.25132 -26.15246 -8.20521 3.2873 2.39553
-0.03242 -0.02904 0.65218 16.69182 -18.36659 -5.40921 36.9243 1.98862 -13.25258 -10.56867 -3.36934 -0.83079 4.79662 -31.32594 22.42241 90.54477 83.40509 2.80809 -2.34645 20.84014 13.73665 -50.71637 80.92637 -84.27246 -1.98784 3.21853 50.86697 -0.30946 -1.24833 -27.95279 -8.76713 -4.05884 -2.89097 34.58502 13.27126 3.46669 -25.85428 -8.25191 3.28569 2.4011
-0.02836 -0.02855 0.6546 17.6916 -18.59424 -5.29141 37.00575 2.11535 -13.89069 -10.62954 -3.72299 -0.83079 -0.36683 -35.51677 22.05528 92.09601 83.3314 4.15925 -2.46953 19.58502 15.10547 -51.65029 78.23082 -84.58436 -0.20002 2.28902 50.6441 -0.334 -1.03365 -28.07063 -8.79538 -4.14565 -2.94948 34.54921 13.18835 2.5022 -25.51836 -8.32073 3.29721 2.41644
-0.02444 -0.02809 0.65691 18.66805 -18.82037 -5.1733 37.08951 2.23382 -14.50988 -10.67216 -4.05696 -0.83079 -5.15889 -39.42335 21.53128 93.35387 83.24699 5.39619 -2.60208 18.4563 16.40702 -52.51988 75.6259 -84.96832 1.50393 1.42644 50.46376 -0.36071 -0.83326 -28.11984 -8.82188 -4.21909 -2.99931 34.51825 13.11455 1.63043 -25.19578 -8.38216 3.30177 2.42671
-0.02054 -0.0277 0.65918 19.68039 -19.04578 -5.04111 37.18115 2.33123 -15.10088 -10.67358 -4.40777 -0.83079 -9.51927 -43.69466 21.36035 94.50551 83.19633 6.58998 -2.73138 17.5098 17.7546 -53.63838 72.9981 -84.66913 3.27369 0.55854 50.28929 -0.40994 -0.5639 -28.21034 -8.8531 -4.29726 -3.05349 34.49212 13.00048 0.70397 -24.88904 -8.43258 3.31083 2.43987
-0.01654 -0.02715 0.6616 20.62248 -19.27329 -4.93884 37.25378 2.4791 -15.76271 -10.77508 -4.73218 -0.83079 -14.98037 -47.32686 20.54168 96.03618 83.07787 7.90142 -2.86201 16.09489 19.02846 -54.22996 70.37507 -85.80688 4.93102 -0.32804 50.08065 -0.40855 -0.43731 -28.24449 -8.87482 -4.37169 -3.10246 34.45198 12.96987 -0.14664 -24.54033 -8.51127 3.31368 2.44934
-0.01231 -0.02619 0.66432 21.38451 -19.50624 -4.93126 37.27749 2.76481 -16.61754 -11.13722 -4.9676 -0.83079 -23.60423 -48.88343 17.44052 98.52655 82.7826 9.8583 -3.00147 13.51097 20.11101 -53.47989 67.80515 -91.19703 6.31665 -1.2605 49.79902 -0.27353 -0.73178 -28.09499 -8.86814 -4.42968 -3.1331 34.38296 13.17935 -0.76136 -24.08647 -8.66041 3.29419 2.44487
-0.00798 -0.02508 0.66719 22.06961 -19.74074 -4.95095 37.28172 3.09934 -17.53896 -11.59754 -5.1763 -0.83079 -33.22408 -49.8097 13.76312 101.35592 82.41852 11.86146 -3.14175 10.46624 21.10447 -52.17809 65.2482 -97.96696 7.56825 -2.20029 49.4871 -0.08825 -1.16615 -27.88305 -8.85198 -4.48259 -3.15771 34.29877 13.47123 -1.28915 -23.59151 -8.83758 3.26825 2.43652
